Coordinates
version=1
nRows=6
nColumns=36
inDegrees=yes

Units are S.I. units (second, meters, Newtons, ...)
If the header above contains a line with 'inDegrees', this indicates whether rotational values are in degrees (yes) or radians (no).

endheader
time	pelvis_tilt	pelvis_list	pelvis_rotation	pelvis_tx	pelvis_ty	pelvis_tz	hip_flexion_r	hip_adduction_r	hip_rotation_r	knee_angle_r	knee_angle_r_beta	ankle_angle_r	subtalar_angle_r	mtp_angle_r	hip_flexion_l	hip_adduction_l	hip_rotation_l	knee_angle_l	knee_angle_l_beta	ankle_angle_l	subtalar_angle_l	mtp_angle_l	lumbar_extension	lumbar_bending	lumbar_rotation	arm_flex_r	arm_add_r	arm_rot_r	elbow_flex_r	pro_sup_r	arm_flex_l	arm_add_l	arm_rot_l	elbow_flex_l	pro_sup_l
      4.80000000	      0.70405876	     -4.35993930	     -1.78186205	      0.63308173	      1.00149743	     -0.11433276	     12.04864186	     -1.98697499	     -8.95722864	     26.84218024	      0.46848442	     15.83969521	     -8.82799281	     -7.49999987	     -1.22541237	      1.27739958	    -10.14841135	      3.86888540	      0.06752479	     13.82246807	      8.20845617	     -7.49999987	     -0.79891607	      2.86840095	     -4.06936918	      0.49684931	     -4.99809517	     10.88679457	     25.38904931	     70.25954253	     -5.10842859	    -11.04553179	     14.48996290	     19.76415866	     76.88118560
      4.81666670	      0.65421504	     -4.50987577	     -1.76452155	      0.62905831	      1.00059586	     -0.11338920	     10.91991673	     -1.66927874	     -8.90011151	     25.29065077	      0.44140513	     15.88864827	     -8.51442672	     -7.49999987	     -1.24399231	      1.09273835	    -10.11541509	      3.63388166	      0.06342320	     13.63335686	      8.58786014	     -7.49999987	     -0.87937538	      2.85004070	     -4.08209658	      0.52390946	     -5.03302054	     11.04933795	     25.23030838	     70.20537609	     -4.97093315	    -11.08818732	     14.46510979	     19.49435457	     76.70831940
      4.83333330	      0.71817680	     -4.58199807	     -1.78926953	      0.62834010	      1.00143670	     -0.11251123	      9.88054449	     -1.49772589	     -8.89843479	     24.06871110	      0.42007826	     15.63602887	     -8.69649653	     -7.49999987	     -1.30691950	      0.98101036	    -10.18033046	      3.44347770	      0.06010002	     13.26040531	      8.82177045	     -7.49999987	     -1.12354603	      2.78035084	     -4.11530400	      0.65111904	     -5.01840911	     11.17370440	     25.04208819	     69.61344571	     -4.76343261	    -11.13269396	     14.46463002	     19.37487907	     75.70579394
      4.85000000	      0.78233844	     -4.53848878	     -1.86144624	      0.62962380	      1.00300350	     -0.11139771	      8.92423109	     -1.47870891	     -9.14000081	     22.92643281	      0.40014174	     15.26957939	     -9.10560291	     -7.49999987	     -1.40668922	      0.96225533	    -10.21367294	      3.30149757	      0.05762200	     12.88703779	      8.94174328	     -7.49999987	     -1.34115130	      2.62345795	     -4.07948512	      0.71448447	     -5.04011416	     11.36730853	     24.85962805	     68.70985666	     -4.59472633	    -11.14662199	     14.62482056	     19.41422663	     74.18879894
      4.86666670	      0.70627056	     -4.47220487	     -2.07828676	      0.62850936	      0.99789115	     -0.11078475	      8.27348179	     -1.54659903	     -9.41434179	     21.78938715	      0.38029655	     14.79701806	     -9.89851356	     -7.49999987	     -1.34090213	      0.98754088	    -10.48290902	      3.15740897	      0.05510718	     12.94944075	      9.36623560	     -7.49999987	     -1.37745281	      2.50249105	     -3.90587984	      0.85020543	     -5.27770952	     12.56458522	     24.57710397	     68.51487004	     -4.27379753	    -11.25939622	     15.91573746	     19.40471883	     73.38389942
      4.88333330	      0.65242892	     -4.36955832	     -2.31144782	      0.62772731	      0.99674161	     -0.10995814	      7.62869053	     -1.60421684	     -9.99217420	     20.49826814	      0.35776227	     14.31426214	    -10.60863330	     -7.49999987	     -1.35380539	      1.07617560	    -10.66928934	      2.93383214	      0.05120503	     13.07024598	      9.66074120	     -7.49999987	     -1.46705818	      2.32913240	     -3.76482042	      0.93758014	     -5.27489261	     12.44935842	     24.39561473	     67.99262703	     -4.00915472	    -11.21493417	     15.87206444	     19.53348126	     72.53255260
